<svg width="34" height="43" viewBox="0 0 34 43" fill="none" xmlns="http://www.w3.org/2000/svg">
<path d="M15.1748 4.3C11.8122 4.3 10.1014 4.66283 8.5269 5.51479C7.18977 6.23833 6.16579 7.27435 5.45067 8.62722C4.60862 10.2203 4.25 11.9512 4.25 15.3534V27.6466C4.25 31.0488 4.60862 32.7798 5.45067 34.3727C6.16579 35.7257 7.18977 36.7618 8.5269 37.4853C10.1014 38.3371 11.8122 38.7 15.1748 38.7H18.8252C22.1878 38.7 23.8986 38.3371 25.473 37.4853C26.8103 36.7618 27.8343 35.7257 28.5494 34.3727C29.3913 32.7798 29.75 31.0488 29.75 27.6466V15.3534C29.75 11.9512 29.3913 10.2203 28.5494 8.62722C27.8343 7.27435 26.8103 6.23833 25.473 5.51479C23.8986 4.66283 22.1878 4.3 18.8252 4.3H15.1748ZM15.1748 0H18.8252C23.1047 0 25.3997 0.598732 27.4773 1.72301C29.5551 2.84729 31.1859 4.49713 32.297 6.59934C33.4082 8.70157 34 11.0235 34 15.3534V27.6466C34 31.9765 33.4082 34.2985 32.297 36.4006C31.1859 38.5028 29.5551 40.1528 27.4773 41.277C25.3997 42.4012 23.1047 43 18.8252 43H15.1748C10.8953 43 8.60038 42.4012 6.5226 41.277C4.44484 40.1528 2.81418 38.5028 1.70298 36.4006C0.59177 34.2985 0 31.9765 0 27.6466V15.3534C0 11.0235 0.59177 8.70157 1.70298 6.59934C2.81418 4.49713 4.44484 2.84729 6.5226 1.72301C8.60038 0.598732 10.8953 0 15.1748 0ZM14.875 8.6H19.125V19.35H14.875V8.6Z" fill="#D9D9D9"/>
</svg>
