<svg width="24" height="24" viewBox="0 0 24 24" fill="none" xmlns="http://www.w3.org/2000/svg">
<path d="M12 3C17.4825 3 22.0437 6.87976 23 12C22.0437 17.1202 17.4825 21 12 21C6.51745 21 1.95628 17.1202 1 12C1.95628 6.87976 6.51745 3 12 3ZM12 19C16.3066 19 19.9918 16.052 20.9246 12C19.9918 7.94803 16.3066 5 12 5C7.69332 5 4.00818 7.94803 3.07536 12C4.00818 16.052 7.69332 19 12 19ZM12 16.5C9.47305 16.5 7.42455 14.4853 7.42455 12C7.42455 9.51472 9.47305 7.5 12 7.5C14.5269 7.5 16.5755 9.51472 16.5755 12C16.5755 14.4853 14.5269 16.5 12 16.5ZM12 14.5C13.4039 14.5 14.5419 13.3807 14.5419 12C14.5419 10.6193 13.4039 9.5 12 9.5C10.5962 9.5 9.45808 10.6193 9.45808 12C9.45808 13.3807 10.5962 14.5 12 14.5Z" fill="#AAAAAA"/>
</svg>
