<svg width="53" height="53" viewBox="0 0 53 53" fill="none" xmlns="http://www.w3.org/2000/svg">
<path d="M26.502 6.625C39.3081 6.625 49.6897 14.7173 49.6897 24.6995C49.6897 34.6819 39.3081 42.7741 26.502 42.7741C25.203 42.7741 23.9297 42.6893 22.6889 42.5294L12.9543 48.8967C11.8471 49.4828 11.4561 49.4176 11.912 47.9847L13.8809 39.8633C7.52097 36.6404 3.31466 31.0534 3.31466 24.6995C3.31466 14.7173 13.696 6.625 26.502 6.625ZM39.5468 24.4222L42.7937 21.2799C43.2074 20.8795 43.2182 20.2199 42.818 19.8061C42.4179 19.393 41.7583 19.3818 41.3442 19.782L37.0861 23.9028V20.4983C37.0861 19.923 36.6197 19.4563 36.044 19.4563C35.4687 19.4563 35.0019 19.923 35.0019 20.4983V26.1451C34.9626 26.3063 34.9634 26.4733 35.0019 26.6349V29.8125C35.0019 30.388 35.4687 30.8546 36.044 30.8546C36.6197 30.8546 37.0861 30.388 37.0861 29.8125V26.8032L38.0304 25.8896L41.1834 30.3789C41.3864 30.6678 41.7095 30.8224 42.0372 30.8224C42.2443 30.8224 42.4532 30.7605 42.6354 30.6327C43.1064 30.3021 43.22 29.652 42.8891 29.1809L39.5468 24.4222ZM33.0152 28.6728H29.7913V20.5309C29.7913 19.9556 29.3247 19.4889 28.749 19.4889C28.1737 19.4889 27.7073 19.9556 27.7073 20.5309V29.7147C27.7073 30.2904 28.1737 30.7568 28.749 30.7568H33.0152C33.591 30.7568 34.0574 30.2904 34.0574 29.7147C34.0574 29.1394 33.591 28.6728 33.0152 28.6728ZM20.0808 26.2626L21.6178 22.4917L23.0252 26.2626H20.0808ZM25.6518 27.3396C25.6522 27.3277 25.6553 27.3169 25.6553 27.3049C25.6553 27.0311 25.5475 26.7842 25.3751 26.5983L23.0665 20.4133C22.8492 19.7953 22.3053 19.3851 21.6806 19.3677C21.0664 19.3511 20.4948 19.7353 20.2383 20.3535L16.5702 29.354C16.3531 29.8869 16.609 30.4953 17.142 30.7126C17.675 30.9299 18.2832 30.6737 18.5003 30.1407L19.2313 28.347H23.803L24.4617 30.1119C24.6183 30.5311 25.0156 30.7899 25.4385 30.7897C25.5595 30.7897 25.6825 30.7685 25.8026 30.7237C26.3419 30.5227 26.6157 29.9223 26.4143 29.3828L25.6518 27.3396ZM18.3169 20.5418C18.3169 19.9664 17.8502 19.4997 17.2749 19.4997H10.1102C9.53459 19.4997 9.0679 19.9664 9.0679 20.5418C9.0679 21.1172 9.53459 21.5839 10.1102 21.5839H12.6719V29.8344C12.6719 30.4099 13.1386 30.8763 13.714 30.8763C14.2896 30.8763 14.7563 30.4099 14.7563 29.8344V21.5839H17.2749C17.8502 21.5839 18.3169 21.1172 18.3169 20.5418Z" fill="#3B1F06"/>
</svg>
