<svg width="132" height="132" viewBox="0 0 132 132" fill="none" xmlns="http://www.w3.org/2000/svg">
<circle cx="66" cy="66" r="66" fill="#A7B59A"/>
<circle cx="66" cy="66.0001" r="58.4" stroke="#F9F3E5" stroke-width="2"/>
<g clip-path="url(#clip0_83_86)">
<path d="M94.4855 57.7808C98.2373 57.7808 100.599 60.8169 99.7342 64.5265C97.2955 75.0013 92.6095 94.8376 90.2129 103.187C89.5851 105.375 87.6172 106.877 85.3738 106.881C76.9474 106.897 55.9905 106.928 47.166 106.889C44.8153 106.877 42.7824 105.223 42.2656 102.891L33.598 64.0477C32.8821 60.8364 35.2825 57.7808 38.5214 57.7808H94.4855ZM78.4749 99.4114V82.257C78.4749 82.257 77.491 74.8028 66.1665 74.8028C55.0066 74.8028 53.8581 82.257 53.8581 82.257V97.722V99.4114H78.4749Z" fill="#F9F3E5"/>
<path d="M78.4749 82.2569V99.4113H53.8581V97.7219V82.2569C53.8581 82.2569 55.0066 74.8027 66.1665 74.8027C77.491 74.8027 78.4749 82.2569 78.4749 82.2569Z" fill="#A7B59A"/>
<path d="M100.083 25.7102C99.8375 25.2859 99.4278 24.9862 98.9569 24.885C93.4785 23.6938 88.4977 23.4486 84.1486 24.1493C80.3814 24.7565 77.043 26.0838 74.2253 28.0846C72.445 29.3497 70.8639 30.8911 69.5278 32.67C68.4635 34.083 67.5485 35.6517 66.8096 37.3216C66.7139 37.5435 66.622 37.7575 66.5339 37.9716C66.1396 37.2437 65.6649 36.4613 65.1059 35.6595C63.4061 33.2266 61.3311 31.222 58.9383 29.6922C55.8717 27.7421 52.319 26.5977 48.368 26.2902C43.7433 25.932 38.5251 26.7261 32.8552 28.6529C32.3958 28.8086 32.0244 29.1512 31.8292 29.6027C31.6339 30.0503 31.6301 30.5642 31.8215 31.0118C31.9287 31.2609 34.4785 37.1425 40.0603 41.7785C43.3834 44.5422 47.0931 46.2822 51.0747 46.9595C55.309 47.6796 59.8418 47.1775 64.5699 45.4764L64.7422 57.6951C64.7537 58.6526 65.5232 59.4234 66.465 59.4234C66.4727 59.4234 66.4765 59.4234 66.4842 59.4234C67.4336 59.4117 68.1955 58.6254 68.1878 57.6601C68.1648 53.8142 68.1113 49.7154 68.027 44.8964C70.8869 45.6827 73.6319 46.072 76.2467 46.072C80.1861 46.072 83.8346 45.1806 87.1615 43.4056C89.4012 42.2067 91.4838 40.603 93.3559 38.6334C94.8376 37.0725 96.1852 35.2819 97.3681 33.3123C99.3781 29.9569 100.209 27.2244 100.243 27.1076C100.385 26.6405 100.328 26.1306 100.083 25.7102Z" fill="#F9F3E5"/>
</g>
<defs>
<clipPath id="clip0_83_86">
<rect width="68.64" height="83.16" fill="white" transform="translate(31.68 23.76)"/>
</clipPath>
</defs>
</svg>
