<svg width="22" height="22" viewBox="0 0 22 22" fill="none" xmlns="http://www.w3.org/2000/svg">
<path d="M4.42106 0C7.39343 0 9.97431 1.66818 11.27 4.11514C12.5712 2.29077 14.7117 1.1 17.1316 1.1H21V3.85C21 7.79884 17.7836 11 13.8158 11H12.1579V12.1H17.6842V19.8C17.6842 21.0151 16.6945 22 15.4737 22H6.6316C5.41075 22 4.42106 21.0151 4.42106 19.8V12.1H9.94734V9.9H7.73686C3.4639 9.9 0 6.45259 0 2.2V0H4.42106ZM15.4737 14.3H6.6316V19.8H15.4737V14.3ZM18.7895 3.3H17.1316C14.3848 3.3 12.1579 5.51619 12.1579 8.25V8.8H13.8158C16.5627 8.8 18.7895 6.58381 18.7895 3.85V3.3ZM4.42106 2.2H2.21053C2.21053 5.23756 4.68475 7.7 7.73686 7.7H9.94734C9.94734 4.66244 7.47317 2.2 4.42106 2.2Z" fill="black"/>
</svg>
