<svg width="22" height="22" viewBox="0 0 22 22" fill="none" xmlns="http://www.w3.org/2000/svg">
<path d="M19.9999 1V3C19.9999 12.6274 14.6274 17 8 17L4.24272 16.9999C4.08055 17.912 4 18.907 4 20H2C2 18.6373 2.11571 17.3997 2.34576 16.2682C2.11525 14.9741 2 13.2176 2 11C2 5.47715 6.47715 1 12 1C14 1 15.9999 2 19.9999 1ZM12 3C7.58172 3 4 6.58172 4 11C4 11.3624 4.0032 11.7111 4.00954 12.0459C5.26393 10.0684 7.10097 8.5048 9.50385 7.13176L10.4962 8.8682C7.64125 10.4996 5.74749 12.3535 4.77524 14.9998L8 15C14.0152 15 17.8712 11.0269 17.9969 3.38766C16.6249 3.52113 15.35 3.436 13.7774 3.20009C12.6263 3.02742 12.4008 3 12 3Z" fill="black"/>
</svg>
