<svg width="100" height="100" viewBox="0 0 100 100" fill="none" xmlns="http://www.w3.org/2000/svg">
<circle cx="50" cy="50" r="37" fill="#A7B59A"/>
<circle cx="50" cy="50.0002" r="32.3" stroke="#F9F3E5" stroke-width="2"/>
<g clip-path="url(#clip0_283_253)">
<path d="M65.9692 45.3921C68.0726 45.3921 69.3968 47.0942 68.9117 49.1738C67.5446 55.046 64.9176 66.1664 63.574 70.8472C63.222 72.0735 62.1189 72.9159 60.8612 72.918C56.1373 72.9268 44.3888 72.9442 39.4417 72.9224C38.1239 72.9159 36.9842 71.9884 36.6945 70.6813L31.8354 48.9054C31.434 47.1051 32.7797 45.3921 34.5954 45.3921H65.9692ZM56.9936 68.7305V59.1136C56.9936 59.1136 56.4421 54.9347 50.0935 54.9347C43.8372 54.9347 43.1933 59.1136 43.1933 59.1136V67.7834V68.7305H56.9936Z" fill="#F9F3E5"/>
<path d="M56.9937 59.1134V68.7303H43.1934V67.7832V59.1134C43.1934 59.1134 43.8372 54.9346 50.0935 54.9346C56.4421 54.9346 56.9937 59.1134 56.9937 59.1134Z" fill="#A7B59A"/>
<path d="M69.1071 27.4131C68.9697 27.1752 68.7401 27.0072 68.4761 26.9505C65.4048 26.2827 62.6125 26.1453 60.1744 26.538C58.0625 26.8785 56.191 27.6226 54.6113 28.7442C53.6133 29.4534 52.7269 30.3176 51.9779 31.3148C51.3812 32.107 50.8683 32.9864 50.4541 33.9225C50.4004 34.0469 50.3489 34.1669 50.2995 34.2869C50.0785 33.8789 49.8123 33.4403 49.499 32.9907C48.546 31.6269 47.3828 30.5031 46.0414 29.6455C44.3222 28.5522 42.3305 27.9106 40.1156 27.7382C37.5229 27.5375 34.5976 27.9826 31.419 29.0628C31.1615 29.1501 30.9533 29.3421 30.8438 29.5953C30.7344 29.8462 30.7322 30.1343 30.8395 30.3852C30.8996 30.5249 32.329 33.8221 35.4583 36.4211C37.3212 37.9705 39.4009 38.9459 41.633 39.3256C44.0067 39.7293 46.5479 39.4478 49.1985 38.4942L49.2951 45.344C49.3015 45.8808 49.7329 46.3129 50.2609 46.3129C50.2652 46.3129 50.2673 46.3129 50.2716 46.3129C50.8039 46.3064 51.231 45.8656 51.2267 45.3244C51.2138 43.1684 51.1838 40.8706 51.1366 38.169C52.7398 38.6098 54.2787 38.8281 55.7445 38.8281C57.953 38.8281 59.9984 38.3283 61.8635 37.3333C63.119 36.6612 64.2866 35.7621 65.3361 34.6579C66.1667 33.7829 66.9222 32.7791 67.5854 31.6749C68.7122 29.7938 69.1779 28.262 69.1972 28.1965C69.2766 27.9346 69.2444 27.6488 69.1071 27.4131Z" fill="#F9F3E5"/>
</g>
<defs>
<clipPath id="clip0_283_253">
<rect width="38.48" height="46.62" fill="white" transform="translate(30.76 26.3198)"/>
</clipPath>
</defs>
</svg>
