<svg width="22" height="22" viewBox="0 0 22 22" fill="none" xmlns="http://www.w3.org/2000/svg">
<path d="M10.5 21C8.41071 21 6.63839 20.2501 5.18304 18.7502C3.72768 17.2503 3 15.4237 3 13.2705C3 11.5406 3.49554 9.9901 4.48661 8.61903C5.47768 7.24797 6.77679 6.32319 8.38393 5.8447C8.02679 5.75269 7.67857 5.61926 7.33929 5.44443C7 5.26959 6.69643 5.04415 6.42857 4.7681C5.83929 4.16078 5.45982 3.43844 5.29018 2.60108C5.12054 1.76372 5.08036 0.912561 5.16964 0.0475953C6.00893 -0.0444223 6.83482 -0.00301438 7.64732 0.171819C8.45982 0.346652 9.16071 0.737727 9.75 1.34504C10.1607 1.76832 10.4598 2.24682 10.6473 2.78052C10.8348 3.31422 10.9554 3.87553 11.0089 4.46444C11.2411 3.89393 11.5223 3.35563 11.8527 2.84953C12.183 2.34343 12.5536 1.87875 12.9643 1.45546C13.1607 1.25303 13.4107 1.15181 13.7143 1.15181C14.0179 1.15181 14.2679 1.25303 14.4643 1.45546C14.6607 1.6579 14.7589 1.91555 14.7589 2.22841C14.7589 2.54127 14.6607 2.79892 14.4643 3.00136C14.0714 3.40624 13.7232 3.85252 13.4196 4.34022C13.1161 4.82791 12.8929 5.34781 12.75 5.89991C14.3214 6.41521 15.5893 7.34919 16.5536 8.70185C17.5179 10.0545 18 11.5774 18 13.2705C18 15.4237 17.2723 17.2503 15.817 18.7502C14.3616 20.2501 12.5893 21 10.5 21ZM10.5 18.7916C11.9821 18.7916 13.2455 18.2533 14.2902 17.1767C15.3348 16.1001 15.8571 14.798 15.8571 13.2705C15.8571 11.743 15.3348 10.441 14.2902 9.36438C13.2455 8.28777 11.9821 7.74947 10.5 7.74947C9.01786 7.74947 7.75446 8.28777 6.70982 9.36438C5.66518 10.441 5.14286 11.743 5.14286 13.2705C5.14286 14.798 5.66518 16.1001 6.70982 17.1767C7.75446 18.2533 9.01786 18.7916 10.5 18.7916Z" fill="black"/>
</svg>
