<svg width="22" height="22" viewBox="0 0 22 22" fill="none" xmlns="http://www.w3.org/2000/svg">
<path d="M10 20V12.025C8.93333 12.025 7.90833 11.8208 6.925 11.4125C5.94167 11.0042 5.075 10.425 4.325 9.675C3.575 8.925 3 8.05833 2.6 7.075C2.2 6.09167 2 5.06667 2 4V2H4C5.05 2 6.06667 2.20417 7.05 2.6125C8.03333 3.02083 8.9 3.6 9.65 4.35C10.1667 4.86667 10.5958 5.43333 10.9375 6.05C11.2792 6.66667 11.5417 7.325 11.725 8.025C11.8083 7.90833 11.9 7.79583 12 7.6875C12.1 7.57917 12.2083 7.46667 12.325 7.35C13.075 6.6 13.9417 6.02083 14.925 5.6125C15.9083 5.20417 16.9333 5 18 5H20V7C20 8.06667 19.7958 9.09167 19.3875 10.075C18.9792 11.0583 18.4 11.925 17.65 12.675C16.9 13.425 16.0375 14 15.0625 14.4C14.0875 14.8 13.0667 15 12 15V20H10ZM10 10C10 9.2 9.84583 8.4375 9.5375 7.7125C9.22917 6.9875 8.79167 6.34167 8.225 5.775C7.65833 5.20833 7.0125 4.77083 6.2875 4.4625C5.5625 4.15417 4.8 4 4 4C4 4.8 4.15 5.56667 4.45 6.3C4.75 7.03333 5.18333 7.68333 5.75 8.25C6.31667 8.81667 6.96667 9.25 7.7 9.55C8.43333 9.85 9.2 10 10 10ZM12 13C12.8 13 13.5625 12.85 14.2875 12.55C15.0125 12.25 15.6583 11.8167 16.225 11.25C16.7917 10.6833 17.2292 10.0333 17.5375 9.3C17.8458 8.56667 18 7.8 18 7C17.2 7 16.4333 7.15417 15.7 7.4625C14.9667 7.77083 14.3167 8.20833 13.75 8.775C13.1833 9.34167 12.75 9.9875 12.45 10.7125C12.15 11.4375 12 12.2 12 13Z" fill="black"/>
</svg>
