<svg width="22" height="22" viewBox="0 0 22 22" fill="none" xmlns="http://www.w3.org/2000/svg">
<path d="M8.48936 1.62811C8.70599 1.14329 9.05836 0.731567 9.5039 0.442654C9.94944 0.153741 10.4691 0 11.0001 0C11.5311 0 12.0508 0.153741 12.4963 0.442654C12.9419 0.731567 13.2942 1.14329 13.5109 1.62811C13.9409 1.31601 14.4521 1.13517 14.9827 1.10744C15.5133 1.07972 16.0406 1.2063 16.5008 1.47189C16.961 1.73747 17.3344 2.13069 17.5758 2.60398C17.8173 3.07728 17.9165 3.61039 17.8614 4.13886C18.3898 4.08376 18.9229 4.18294 19.3962 4.4244C19.8695 4.66586 20.2628 5.03926 20.5283 5.49945C20.7939 5.95964 20.9205 6.48692 20.8928 7.01753C20.8651 7.54814 20.6842 8.05935 20.3721 8.48936C20.8569 8.70599 21.2687 9.05836 21.5576 9.5039C21.8465 9.94944 22.0002 10.4691 22.0002 11.0001C22.0002 11.5311 21.8465 12.0508 21.5576 12.4963C21.2687 12.9419 20.8569 13.2942 20.3721 13.5109C20.6842 13.9409 20.8651 14.4521 20.8928 14.9827C20.9205 15.5133 20.7939 16.0406 20.5283 16.5008C20.2628 16.961 19.8695 17.3344 19.3962 17.5758C18.9229 17.8173 18.3898 17.9165 17.8614 17.8614C17.9165 18.3898 17.8173 18.9229 17.5758 19.3962C17.3344 19.8695 16.961 20.2628 16.5008 20.5283C16.0406 20.7939 15.5133 20.9205 14.9827 20.8928C14.4521 20.8651 13.9409 20.6842 13.5109 20.3721C13.2942 20.8569 12.9419 21.2687 12.4963 21.5576C12.0508 21.8465 11.5311 22.0002 11.0001 22.0002C10.4691 22.0002 9.94944 21.8465 9.5039 21.5576C9.05836 21.2687 8.70599 20.8569 8.48936 20.3721C8.05935 20.6842 7.54814 20.8651 7.01753 20.8928C6.48692 20.9205 5.95964 20.7939 5.49945 20.5283C5.03926 20.2628 4.66586 19.8695 4.4244 19.3962C4.18294 18.9229 4.08376 18.3898 4.13886 17.8614C3.61039 17.9165 3.07728 17.8173 2.60398 17.5758C2.13069 17.3344 1.73747 16.961 1.47189 16.5008C1.2063 16.0406 1.07972 15.5133 1.10744 14.9827C1.13517 14.4521 1.31601 13.9409 1.62811 13.5109C1.14329 13.2942 0.731567 12.9419 0.442654 12.4963C0.153741 12.0508 0 11.5311 0 11.0001C0 10.4691 0.153741 9.94944 0.442654 9.5039C0.731567 9.05836 1.14329 8.70599 1.62811 8.48936C1.31601 8.05935 1.13517 7.54814 1.10744 7.01753C1.07972 6.48692 1.2063 5.95964 1.47189 5.49945C1.73747 5.03926 2.13069 4.66586 2.60398 4.4244C3.07728 4.18294 3.61039 4.08376 4.13886 4.13886C4.08376 3.61039 4.18294 3.07728 4.4244 2.60398C4.66586 2.13069 5.03926 1.73747 5.49945 1.47189C5.95964 1.2063 6.48692 1.07972 7.01753 1.10744C7.54814 1.13517 8.05935 1.31601 8.48936 1.62811ZM11.0001 1.37511C10.8163 1.3754 10.6343 1.41255 10.4651 1.48438C10.2958 1.55621 10.1427 1.66125 10.0148 1.7933C9.88681 1.92534 9.78665 2.0817 9.7202 2.25314C9.65374 2.42457 9.62234 2.60758 9.62786 2.79136L9.64161 2.91649C9.65811 3.02236 9.68149 3.15849 9.71586 3.32349C9.78324 3.65486 9.88361 4.06874 10.0087 4.54311C10.259 5.48911 10.5972 6.62349 10.9382 7.72486L11.0001 7.92286L11.062 7.72486C11.403 6.62486 11.7412 5.48911 11.9915 4.54311C12.1166 4.06874 12.217 3.65486 12.2844 3.32349C12.3206 3.14779 12.35 2.97073 12.3724 2.79274L12.3751 2.75011C12.3751 2.38544 12.2302 2.0357 11.9724 1.77784C11.7145 1.51998 11.3648 1.37511 11.0001 1.37511ZM2.75011 12.3751L2.79136 12.3724L2.91649 12.3586C3.05287 12.338 3.1886 12.3132 3.32349 12.2844C3.65486 12.217 4.06874 12.1166 4.54311 11.9915C5.60975 11.7028 6.67055 11.3929 7.72486 11.062L7.92286 11.0001L7.72486 10.9382C6.67055 10.6073 5.60975 10.2974 4.54311 10.0087C4.13931 9.90003 3.73262 9.80237 3.32349 9.71586C3.14779 9.6796 2.97074 9.65024 2.79274 9.62786L2.75011 9.62511C2.38544 9.62511 2.0357 9.76998 1.77784 10.0278C1.51998 10.2857 1.37511 10.6354 1.37511 11.0001C1.37511 11.3648 1.51998 11.7145 1.77784 11.9724C2.0357 12.2302 2.38544 12.3751 2.75011 12.3751ZM12.3751 19.2501L12.3724 19.2089C12.35 19.0309 12.3206 18.8538 12.2844 18.6781C12.1981 18.2685 12.1004 17.8613 11.9915 17.4571C11.7028 16.3905 11.3929 15.3297 11.062 14.2754L11.0001 14.0774L10.9382 14.2754C10.5972 15.3754 10.259 16.5111 10.0087 17.4571C9.88361 17.9315 9.78324 18.3454 9.71586 18.6767C9.67961 18.8524 9.65025 19.0295 9.62786 19.2075L9.62511 19.2501C9.62511 19.6148 9.76998 19.9645 10.0278 20.2224C10.2857 20.4802 10.6354 20.6251 11.0001 20.6251C11.3648 20.6251 11.7145 20.4802 11.9724 20.2224C12.2302 19.9645 12.3751 19.6148 12.3751 19.2501ZM4.54311 16.3159L4.57749 16.2925C4.72076 16.1843 4.85974 16.0705 4.99411 15.9515C5.24711 15.726 5.55511 15.4331 5.90299 15.0866C6.68283 14.3035 7.44703 13.5049 8.19511 12.6914L8.33674 12.5387L8.13461 12.5841C7.05565 12.825 5.98156 13.0872 4.91299 13.3706C4.43999 13.4985 4.03299 13.6181 3.71124 13.7254C3.54064 13.7821 3.37231 13.8454 3.20661 13.9151L3.16949 13.9344C3.01185 14.024 2.8735 14.1439 2.76239 14.2872C2.65129 14.4305 2.56963 14.5944 2.52212 14.7694C2.47461 14.9444 2.46218 15.1271 2.48556 15.3069C2.50893 15.4867 2.56764 15.6601 2.65831 15.8172C2.74898 15.9742 2.86982 16.1118 3.01386 16.2219C3.15791 16.3321 3.32232 16.4126 3.49763 16.459C3.67295 16.5053 3.85569 16.5166 4.03536 16.492C4.21502 16.4674 4.38805 16.4076 4.54449 16.3159H4.54311ZM6.18761 19.3354C6.50342 19.5177 6.87872 19.5671 7.23096 19.4727C7.5832 19.3783 7.88352 19.1479 8.06586 18.8321L8.08511 18.795C8.09886 18.7675 8.11399 18.729 8.13461 18.6795C8.18518 18.5512 8.23196 18.4214 8.27486 18.2904C8.38211 17.97 8.50174 17.5616 8.62961 17.0886C8.91312 16.0201 9.17534 14.946 9.41611 13.867L9.46149 13.6649L9.31024 13.8051C8.4963 14.5532 7.69726 15.3174 6.91361 16.0972C6.61729 16.392 6.3289 16.6946 6.04874 17.0047C5.92971 17.1396 5.81596 17.279 5.70774 17.4227L5.68436 17.4571C5.50203 17.7729 5.45262 18.1482 5.547 18.5005C5.64138 18.8527 5.87181 19.153 6.18761 19.3354ZM18.8321 8.06586C19.1453 7.88223 19.3732 7.58216 19.466 7.23112C19.5588 6.88009 19.509 6.5066 19.3275 6.19216C19.1459 5.87771 18.8474 5.64784 18.497 5.55271C18.1466 5.45757 17.7728 5.5049 17.4571 5.68436L17.4227 5.70774C17.2794 5.81587 17.1404 5.92962 17.0061 6.04874C16.6953 6.32869 16.3923 6.61709 16.0972 6.91361C15.3174 7.69678 14.5532 8.49535 13.8051 9.30886L13.6649 9.46149L13.867 9.41611C14.9455 9.17532 16.0191 8.91311 17.0872 8.62961C17.5616 8.50174 17.97 8.38211 18.2904 8.27486C18.461 8.21824 18.6293 8.15494 18.795 8.08511C18.8075 8.07905 18.8199 8.07263 18.8321 8.06586ZM15.8126 2.66486C15.4968 2.48253 15.1215 2.43312 14.7693 2.5275C14.417 2.62188 14.1167 2.85231 13.9344 3.16811L13.9151 3.20524C13.9014 3.23274 13.8862 3.27124 13.8656 3.32074C13.815 3.44903 13.7683 3.5788 13.7254 3.70986C13.6181 4.03024 13.4985 4.43861 13.3706 4.91299C13.0871 5.98108 12.8249 7.05471 12.5841 8.13324L12.5387 8.33536L12.69 8.19511C13.5039 7.44698 14.303 6.68279 15.0866 5.90299C15.4331 5.55511 15.726 5.24711 15.9515 4.99549C16.0706 4.86067 16.1843 4.72123 16.2925 4.57749L16.3159 4.54311C16.4982 4.2273 16.5476 3.852 16.4532 3.49976C16.3588 3.14753 16.1284 2.8472 15.8126 2.66486ZM19.2501 12.3751C19.6148 12.3751 19.9645 12.2302 20.2224 11.9724C20.4802 11.7145 20.6251 11.3648 20.6251 11.0001C20.6251 10.6354 20.4802 10.2857 20.2224 10.0278C19.9645 9.76998 19.6148 9.62511 19.2501 9.62511L19.2089 9.62786C19.0309 9.65025 18.8538 9.67961 18.6781 9.71586C18.3454 9.78324 17.9315 9.88361 17.4571 10.0087C16.5111 10.259 15.3767 10.5972 14.2754 10.9382L14.0774 11.0001L14.2754 11.062C15.3754 11.403 16.5111 11.7412 17.4571 11.9915C17.9315 12.1166 18.3454 12.217 18.6767 12.2844C18.8524 12.3206 19.0295 12.35 19.2075 12.3724L19.2501 12.3751ZM2.66486 6.18761C2.57302 6.34702 2.51411 6.52324 2.49161 6.70583C2.4691 6.88842 2.48347 7.07367 2.53386 7.25061C2.58425 7.42755 2.66963 7.59258 2.78496 7.73592C2.90028 7.87926 3.04319 7.998 3.20524 8.08511L3.32074 8.13324C3.41974 8.17449 3.54899 8.22124 3.70986 8.27486C4.03024 8.38211 4.43861 8.50174 4.91161 8.62961C5.98019 8.91303 7.05427 9.17524 8.13324 9.41611L8.33536 9.46149L8.19374 9.30886C7.44611 8.49533 6.68238 7.69676 5.90299 6.91361C5.60841 6.61712 5.3058 6.32872 4.99549 6.04874C4.86067 5.92964 4.72123 5.81589 4.57749 5.70774L4.54311 5.68436C4.2273 5.50203 3.852 5.45262 3.49976 5.547C3.14753 5.64138 2.8472 5.87181 2.66486 6.18761ZM5.68436 4.54311L5.70774 4.57749C5.81592 4.72076 5.92967 4.85975 6.04874 4.99411C6.27424 5.24711 6.56711 5.55511 6.91361 5.90299C7.69675 6.68284 8.49532 7.44703 9.30886 8.19511L9.46149 8.33536L9.41611 8.13324C9.17532 7.05471 8.91311 5.98108 8.62961 4.91299C8.50174 4.43861 8.38211 4.03024 8.27486 3.70986C8.21823 3.53924 8.15493 3.3709 8.08511 3.20524L8.06586 3.16811C7.97624 3.01047 7.85631 2.87212 7.713 2.76102C7.56969 2.64992 7.40581 2.56826 7.23081 2.52075C7.05581 2.47324 6.87314 2.46081 6.69332 2.48418C6.5135 2.50756 6.34008 2.56627 6.18304 2.65694C6.026 2.74761 5.88844 2.86844 5.77829 3.01249C5.66814 3.15654 5.58757 3.32095 5.54123 3.49626C5.49488 3.67157 5.48366 3.85432 5.50823 4.03398C5.53279 4.21365 5.59265 4.38668 5.68436 4.54311ZM19.3354 15.8126C19.5177 15.4968 19.5671 15.1215 19.4727 14.7693C19.3783 14.417 19.1479 14.1167 18.8321 13.9344L18.795 13.9151C18.6293 13.8453 18.461 13.782 18.2904 13.7254C17.97 13.6181 17.5616 13.4985 17.0872 13.3706C16.0191 13.0871 14.9455 12.8249 13.867 12.5841L13.6649 12.5387L13.8051 12.6914C14.5532 13.5049 15.3174 14.3034 16.0972 15.0866C16.4451 15.4331 16.7531 15.726 17.0047 15.9515C17.1395 16.0706 17.2789 16.1844 17.4227 16.2925L17.4571 16.3159C17.7729 16.4982 18.1482 16.5476 18.5005 16.4532C18.8527 16.3588 19.153 16.1284 19.3354 15.8126ZM13.9344 18.8321C14.118 19.1453 14.4181 19.3732 14.7691 19.466C15.1201 19.5588 15.4936 19.509 15.8081 19.3275C16.1225 19.1459 16.3524 18.8474 16.4475 18.497C16.5427 18.1466 16.4953 17.7728 16.3159 17.4571L16.2925 17.4227C16.1842 17.2795 16.0705 17.1405 15.9515 17.0061C15.6715 16.6953 15.3831 16.3923 15.0866 16.0972C14.3035 15.3173 13.5049 14.5532 12.6914 13.8051L12.5387 13.6649L12.5841 13.867C12.8249 14.9455 13.0871 16.0191 13.3706 17.0872C13.4985 17.5616 13.6181 17.97 13.7254 18.2904C13.782 18.461 13.8453 18.6293 13.9151 18.795C13.9212 18.8075 13.9276 18.8199 13.9344 18.8321ZM11.0001 13.0626C11.5471 13.0626 12.0717 12.8453 12.4585 12.4585C12.8453 12.0717 13.0626 11.5471 13.0626 11.0001C13.0626 10.4531 12.8453 9.9285 12.4585 9.5417C12.0717 9.15491 11.5471 8.93761 11.0001 8.93761C10.4531 8.93761 9.9285 9.15491 9.5417 9.5417C9.15491 9.9285 8.93761 10.4531 8.93761 11.0001C8.93761 11.5471 9.15491 12.0717 9.5417 12.4585C9.9285 12.8453 10.4531 13.0626 11.0001 13.0626Z" fill="black"/>
</svg>
