<svg width="100" height="100" viewBox="0 0 100 100" fill="none" xmlns="http://www.w3.org/2000/svg">
<path d="M0 50C0 47.6767 1.88341 45.7933 4.20673 45.7933C6.53005 45.7933 8.41346 47.6767 8.41346 50C8.41346 72.9675 27.0325 91.5865 50 91.5865C72.9675 91.5865 91.5865 72.9675 91.5865 50C91.5865 27.0325 72.9675 8.41346 50 8.41346C47.6767 8.41346 45.7933 6.53005 45.7933 4.20673C45.7933 1.88341 47.6767 0 50 0C77.6142 0 100 22.3858 100 50C100 77.6142 77.6142 100 50 100C22.3858 100 0 77.6142 0 50Z" fill="#D9D9D9"/>
</svg>
