<svg width="22" height="22" viewBox="0 0 22 22" fill="none" xmlns="http://www.w3.org/2000/svg">
<path d="M11 21C5.47716 21 1 16.5229 1 11C1 5.47715 5.47716 1 11 1C16.5228 1 21 5.47715 21 11C21 16.5229 16.5228 21 11 21ZM11 19C15.4183 19 19 15.4183 19 11C19 6.58172 15.4183 3 11 3C6.58172 3 3 6.58172 3 11C3 15.4183 6.58172 19 11 19ZM7.5 13H13C13.2761 13 13.5 12.7762 13.5 12.5C13.5 12.2239 13.2761 12 13 12H9.00002C7.61929 12 6.5 10.8807 6.5 9.49997C6.5 8.11929 7.61929 7 9.00002 7H10V5H12V7H14.5V8.99997H9.00002C8.72386 8.99997 8.5 9.22387 8.5 9.49997C8.5 9.77617 8.72386 9.99997 9.00002 9.99997H13C14.3807 9.99997 15.5 11.1193 15.5 12.5C15.5 13.8807 14.3807 15 13 15H12V17H10V15H7.5V13Z" fill="black"/>
</svg>
