<svg width="28" height="30" viewBox="0 0 28 30" fill="none" xmlns="http://www.w3.org/2000/svg">
<path d="M12.0211 0.19873C18.6567 0.19873 24.0421 6.07442 24.0421 13.3141C24.0421 20.5538 18.6567 26.4295 12.0211 26.4295C5.38543 26.4295 0 20.5538 0 13.3141C0 6.07442 5.38543 0.19873 12.0211 0.19873ZM12.0211 23.515C17.1868 23.515 21.3708 18.9501 21.3708 13.3141C21.3708 7.67814 17.1868 3.11326 12.0211 3.11326C6.85534 3.11326 2.67135 7.67814 2.67135 13.3141C2.67135 18.9501 6.85534 23.515 12.0211 23.515ZM23.3546 23.6186L27.1325 27.7403L25.2435 29.8012L21.4657 25.6794L23.3546 23.6186Z" fill="#555555"/>
</svg>
