<svg width="90" height="89" viewBox="0 0 90 89" fill="none" xmlns="http://www.w3.org/2000/svg">
<path d="M76.6121 81.6944H7.50471C5.20355 81.6944 3.33805 79.8285 3.33805 77.5277V19.1942C3.33805 16.893 5.20355 15.0275 7.50471 15.0275H9.94551L0.810547 5.89258L6.70309 0L89.1988 82.4956L83.3063 88.3885L76.6121 81.6944ZM18.2788 23.3609H11.6714V73.361H68.2788L59.1929 64.2752C55.2908 67.3556 50.3625 69.1944 45.0046 69.1944C32.3482 69.1944 22.088 58.934 22.088 46.2777C22.088 40.9198 23.9266 35.9915 27.0072 32.0892L18.2788 23.3609ZM32.9645 38.0465C31.36 40.389 30.4214 43.2235 30.4214 46.2777C30.4214 54.3319 36.9504 60.861 45.0046 60.861C48.0583 60.861 50.8929 59.9223 53.2358 58.3177L32.9645 38.0465ZM86.6713 68.3019L78.3379 59.9685V23.3609H62.3863L54.0529 15.0275H35.9565L34.6769 16.3072L28.7843 10.4146L32.5047 6.69421H57.5046L65.8379 15.0275H82.5046C84.8058 15.0275 86.6713 16.893 86.6713 19.1942V68.3019ZM41.9346 23.5647C42.9388 23.4303 43.9637 23.3609 45.0046 23.3609C57.6613 23.3609 67.9213 33.621 67.9213 46.2777C67.9213 47.3185 67.8521 48.3435 67.7175 49.3477L57.9762 39.6065C56.585 36.9069 54.3754 34.6973 51.6758 33.306L41.9346 23.5647Z" fill="#999999"/>
</svg>
