<svg width="186" height="186" viewBox="0 0 186 186" fill="none" xmlns="http://www.w3.org/2000/svg">
<circle cx="93" cy="93" r="93" fill="white"/>
<circle cx="93.0008" cy="93.001" r="82.7" stroke="url(#paint0_linear_325_868)" stroke-width="2"/>
<g clip-path="url(#clip0_325_868)">
<path d="M133.14 81.4182C138.427 81.4182 141.755 85.6965 140.536 90.9236C137.1 105.684 130.497 133.635 127.12 145.4C126.235 148.482 123.462 150.6 120.301 150.605C108.427 150.627 78.8971 150.671 66.4626 150.616C63.1503 150.6 60.2857 148.269 59.5575 144.983L47.3441 90.2489C46.3353 85.7239 49.7177 81.4182 54.2815 81.4182H133.14ZM110.58 140.08V115.907C110.58 115.907 109.193 105.404 93.236 105.404C77.5107 105.404 75.8923 115.907 75.8923 115.907V137.699V140.08H110.58Z" fill="url(#paint1_linear_325_868)"/>
<path d="M110.58 115.907V140.08H75.8926V137.699V115.907C75.8926 115.907 77.511 105.404 93.2363 105.404C109.194 105.404 110.58 115.907 110.58 115.907Z" fill="white"/>
<path d="M141.027 36.2279C140.682 35.6301 140.105 35.2077 139.441 35.0651C131.721 33.3867 124.703 33.0412 118.575 34.0285C113.266 34.8841 108.562 36.7545 104.592 39.5737C102.083 41.3563 99.8553 43.5284 97.9726 46.035C96.4729 48.026 95.1836 50.2364 94.1424 52.5895C94.0076 52.9021 93.8781 53.2038 93.754 53.5055C93.1984 52.4798 92.5294 51.3773 91.7418 50.2474C89.3466 46.8193 86.4227 43.9946 83.0511 41.839C78.73 39.0911 73.7238 37.4785 68.1566 37.0452C61.6399 36.5406 54.287 37.6595 46.2976 40.3745C45.6503 40.5939 45.127 41.0766 44.8519 41.7129C44.5767 42.3436 44.5713 43.0676 44.8411 43.6984C44.9921 44.0494 48.5849 52.3372 56.4503 58.8697C61.1328 62.764 66.3602 65.2158 71.9706 66.1702C77.937 67.1849 84.3242 66.4773 90.9866 64.0804L91.2293 81.2976C91.2455 82.6469 92.3298 83.7329 93.6569 83.7329C93.6677 83.7329 93.6731 83.7329 93.6839 83.7329C95.0217 83.7164 96.0953 82.6085 96.0845 81.2482C96.0521 75.8291 95.9766 70.0535 95.8579 63.2631C99.8877 64.3711 103.756 64.9196 107.44 64.9196C112.991 64.9196 118.132 63.6635 122.82 61.1624C125.976 59.4731 128.911 57.2133 131.549 54.4379C133.636 52.2384 135.535 49.7154 137.202 46.94C140.034 42.212 141.205 38.3616 141.254 38.197C141.453 37.5388 141.372 36.8203 141.027 36.2279Z" fill="url(#paint2_linear_325_868)"/>
</g>
<defs>
<linearGradient id="paint0_linear_325_868" x1="93.0008" y1="9.30103" x2="93.0008" y2="176.701" gradientUnits="userSpaceOnUse">
<stop stop-color="#A7B59A"/>
<stop offset="1" stop-color="#E0E3D2"/>
</linearGradient>
<linearGradient id="paint1_linear_325_868" x1="93.9764" y1="81.4182" x2="93.9764" y2="150.643" gradientUnits="userSpaceOnUse">
<stop stop-color="#A7B59A"/>
<stop offset="1" stop-color="#A7B59A" stop-opacity="0"/>
<stop offset="1" stop-color="#E0E3D2"/>
</linearGradient>
<linearGradient id="paint2_linear_325_868" x1="93.0015" y1="33.48" x2="93.0015" y2="83.7329" gradientUnits="userSpaceOnUse">
<stop stop-color="#A7B59A"/>
<stop offset="1" stop-color="#A7B59A" stop-opacity="0"/>
<stop offset="1" stop-color="#E0E3D2"/>
</linearGradient>
<clipPath id="clip0_325_868">
<rect width="96.72" height="117.18" fill="white" transform="translate(44.6411 33.48)"/>
</clipPath>
</defs>
</svg>
